<?xml version="1.0" encoding="utf-8"?>
<!-- Generator: Adobe Illustrator 18.0.0, SVG Export Plug-In . SVG Version: 6.00 Build 0)  -->
<!DOCTYPE svg PUBLIC "-//W3C//DTD SVG 1.1//EN" "http://www.w3.org/Graphics/SVG/1.1/DTD/svg11.dtd">
<svg version="1.1" id="Layer_1" xmlns="http://www.w3.org/2000/svg" xmlns:xlink="http://www.w3.org/1999/xlink" x="0px" y="0px"
	 viewBox="0 0 48 48" enable-background="new 0 0 48 48" xml:space="preserve">
<g>
	<path fill="#E6E6E6" d="M38.8,44.6c-1.7,1.3-2.9,1-3.6-0.2c-1.3-2.2-3.2-2.5-5.5-2.5c-4.4,0.1-8.8,0-13.3,0c-1.5,0-2.5,0.9-3.3,2.1
		c-1.1,1.6-1.8,1.8-3.9,0.7c0.3-0.8,0.5-1.8,0.9-2.6c1.9-3.9,3.9-7.7,5.8-11.5c1.4-2.8,2.8-5.5,4.2-8.4c0.7-1.4,0.6-2.7-0.5-3.9
		c-1.6-1.8-1.7-4.9-0.3-7C20.9,9,23.4,8.1,26.2,9c2.1,0.6,3.7,3.1,3.8,5.5c0.1,1.6-0.3,3-1.5,4.2c-1.1,1.1-1.3,2.3-0.5,3.8
		c2.9,5.5,5.6,11.1,8.4,16.7C37.2,41,38,42.8,38.8,44.6z M31.1,37.7c-0.1-2.8-1-3.9-3.3-4.1c-2.3-0.1-4.6-0.1-7-0.1
		c-1.7-0.1-2.8,0.8-3.6,2.1c-0.9,1.5-0.5,2.5,1.2,2.6c3.4,0.1,6.8,0.2,10.2,0.2C29.4,38.3,30.2,37.9,31.1,37.7z M21.1,29.6
		c1.3,0.1,2.6,0.3,3.9,0.3c2,0,2.7-1.6,1.7-3.3c-0.8-1.3-2.5-2-3.8-1.6C21.6,25.4,20.8,27.2,21.1,29.6z"/>
	<path fill="#E6E6E6" d="M11,4c-6.4,7-6.3,13.9,0,20.7c-0.8,2.4-2.1,2.7-3.7,1.1c-4.7-4.6-5.4-13.5-3-18.1c0.9-1.7,2-3.4,3.2-4.9
		C8.9,1.1,10.4,1.6,11,4z"/>
	<path fill="#E6E6E6" d="M45.2,14.4c-0.4,4.3-1.7,8.2-4.6,11.4c-0.8,0.9-1.7,1.4-2.8,0.4c-1-0.9-0.5-1.7,0.1-2.7
		c1.1-1.8,2.3-3.6,3-5.6c1.7-4.8-0.1-8.9-3.1-12.7c-0.9-1.2-1-2.2-0.1-2.9c1.1-0.9,2-0.4,2.8,0.5C43.4,6.1,44.8,10,45.2,14.4z"/>
	<path fill="#E6E6E6" d="M15.9,20.4c-0.3,0.3-1,0.8-1.5,1.3c-2.7-1.7-4.4-5.4-3.8-8.4c0.4-1.9,0.9-3.8,2.4-5.1
		c1.4-1.3,2.2-1.1,2.8,0.4c-0.8,2.1-2.1,4-2.1,5.8C13.7,16.1,15,18,15.9,20.4z"/>
	<path fill="#E6E6E6" d="M37.3,14.5c-0.2,2.2-0.6,4.2-2.2,5.9c-0.7,0.8-1.4,1.7-2.5,0.8c-1-0.8-0.7-1.8,0.1-2.7
		c1.8-2,1.8-4.2,0.9-6.5c-0.3-0.7-0.8-1.2-1.2-1.8c-0.7-0.9-0.8-1.8,0.1-2.6c1-0.8,1.8-0.3,2.5,0.5C36.7,10,37.2,12.2,37.3,14.5z"/>
</g>
</svg>
